<svg width="25" height="25" viewBox="0 0 25 25" fill="none" xmlns="http://www.w3.org/2000/svg">
<path d="M24.5 12C24.5 18.3322 19.1469 23.5 12.5 23.5C5.85315 23.5 0.5 18.3322 0.5 12C0.5 5.66777 5.85315 0.5 12.5 0.5C19.1469 0.5 24.5 5.66777 24.5 12Z" fill="#3B82F6" stroke="black"/>
<path d="M18.5953 9.27704C19.4763 9.27704 20.1905 8.54345 20.1905 7.63852C20.1905 6.73359 19.4763 6 18.5953 6C17.7142 6 17 6.73359 17 7.63852C17 8.54345 17.7142 9.27704 18.5953 9.27704Z" fill="#E0D3D4" stroke="black" stroke-width="0.3" stroke-miterlimit="10"/>
<path d="M17.9673 7.06482C17.9673 7.06482 17.0775 7.95086 17.9428 8.75978C18.669 9.43701 19.5174 8.61492 19.5174 8.61492C19.5174 8.61492 18.2344 8.80869 17.8713 8.25185C17.5083 7.69502 17.9673 7.06482 17.9673 7.06482Z" fill="#2CADC5"/>
<path d="M19.3003 16.7596L17.5784 15.6108C17.5784 15.6108 15.5411 14.4457 15.8327 12.5871C16.166 10.4609 14.3359 7.36953 12.2218 6.33288C9.86288 5.17459 6.40599 4.53807 3.29623 8.5282C2.1297 10.0252 2.12169 12.0241 2.46977 13.3775C3.27758 16.5093 5.77189 18.0551 9.04652 18.066C10.0488 18.0694 10.9546 18.0402 11.9553 17.3611C12.2792 17.1417 13.2376 16.4268 14.1449 16.4225C14.9811 16.4183 15.5418 16.5754 16.5175 17.2646C17.3141 17.8266 17.8822 18.1906 18.2382 18.4077C18.4899 18.5599 18.8168 18.4875 18.9776 18.2395L19.4539 17.5074C19.6163 17.2584 19.5476 16.923 19.2993 16.758L19.3003 16.7596Z" fill="#D8D0CA" stroke="black" stroke-width="0.3" stroke-miterlimit="10"/>
<path d="M5.06641 16.462C5.06641 16.462 6.64608 17.514 8.02018 17.7469C10.3459 18.1418 11.5888 17.4716 13.1363 16.1901C13.1317 16.3502 11.7292 17.1771 10.0553 17.3847C8.38145 17.5922 6.44581 17.1597 5.06802 16.4611L5.06641 16.462Z" fill="#96887E"/>
<path d="M19.1067 17.2813L18.8003 17.8484C18.8003 17.8484 18.6729 18.2626 18.2829 18.0501C17.8929 17.8376 15.6318 16.2887 15.6318 16.2887C15.6318 16.2887 14.422 15.8402 13.8125 16.0951C13.8125 16.0951 14.9421 15.5162 16.9012 16.7997C18.8604 18.0832 19.1067 17.2813 19.1067 17.2813Z" fill="#96887E"/>
<path d="M15.5382 12.3137C15.8199 10.3035 14.0689 7.34543 12.0851 6.33275C9.87071 5.20091 6.3943 4.60154 3.5546 8.33872C2.49024 9.74014 2.19879 11.1696 2.54379 12.458C3.34005 15.4391 5.71821 17.1123 8.94808 17.2137C9.87756 17.2441 11.2858 17.2374 12.21 16.6089C12.509 16.4061 15.098 13.3138 15.5398 12.3128L15.5382 12.3137Z" fill="#C1272D" stroke="black" stroke-width="0.3" stroke-miterlimit="10"/>
<path d="M5.57607 6.85487C5.57607 6.85487 4.12302 7.7175 3.51695 9.11733C2.91088 10.5172 2.81374 11.7417 2.92456 12.6544C2.92456 12.6544 3.02741 8.86315 5.57538 6.85742L5.57607 6.85487Z" fill="white"/>
<path d="M9.68295 6.11489C9.68295 6.11489 13.2558 5.58927 15.1301 11.2853C15.1301 11.2853 15.4591 12.363 14.9235 13.209C14.3879 14.0551 13.2912 15.3221 13.2912 15.3221C13.2912 15.3221 15.3059 9.47629 9.68295 6.11489Z" fill="#8E252D"/>
</svg>
