<svg width="297" height="293" viewBox="0 0 297 293" fill="none" xmlns="http://www.w3.org/2000/svg">
<path d="M152.002 153.78C134.522 115.97 114.402 80.13 92.1016 47.11C123.362 71.94 152.032 105.1 175.772 143.86" fill="white"/>
<path d="M153.301 153.02C146.521 138.37 139.321 123.93 131.661 109.72C124.131 95.74 116.171 81.9999 107.781 68.5199C103.121 61.0499 98.3307 53.66 93.4107 46.36L91.0507 48.18C103.541 58.11 115.231 69.03 126.131 80.68C137.691 93.04 148.381 106.21 158.201 119.99C163.921 128.01 169.341 136.24 174.491 144.63C175.501 146.27 178.091 144.77 177.081 143.12C167.981 128.28 158.001 113.98 147.121 100.39C136.741 87.4199 125.531 75.1099 113.461 63.6899C106.951 57.5299 100.181 51.64 93.1607 46.06C91.9407 45.09 89.7707 46.34 90.8007 47.88C99.5807 60.9 107.941 74.21 115.871 87.76C123.951 101.57 131.591 115.63 138.791 129.92C142.901 138.06 146.861 146.27 150.691 154.55C151.501 156.3 154.091 154.78 153.281 153.04L153.301 153.02Z" fill="black"/>
<path d="M127.82 103.82L99.6504 56.0499L142.64 110.22L137.45 123.48L127.82 103.82Z" fill="#E0D4CA"/>
<path d="M132.877 146.46L132.877 146.46C111.107 147.041 90.8907 141.809 75.1874 134.98C67.3352 131.565 60.6186 127.754 55.4061 124.078C50.4741 120.6 46.9195 117.263 45.0117 114.519C45.0167 114.518 45.0218 114.517 45.0269 114.517C45.5026 114.43 46.25 114.343 47.2533 114.252C49.0214 114.092 51.5296 113.922 54.6206 113.713C55.0275 113.686 55.4445 113.657 55.8712 113.628C63.2009 113.131 73.3704 112.414 84.4455 111.13C95.5192 109.847 107.509 107.997 118.48 105.231C129.392 102.48 139.339 98.8121 146.374 93.8653C146.471 93.9425 146.613 94.1031 146.795 94.3809C147.178 94.9687 147.632 95.9158 148.12 97.136C149.093 99.5657 150.166 102.974 151.077 106.479C151.987 109.986 152.73 113.568 153.05 116.345C153.21 117.738 153.261 118.903 153.182 119.747C153.143 120.171 153.073 120.486 152.984 120.7C152.894 120.918 152.813 120.968 152.787 120.979L152.787 120.979C152.622 121.048 152.509 121.17 152.436 121.265C152.358 121.367 152.29 121.487 152.23 121.61C152.11 121.857 151.992 122.179 151.871 122.55C151.677 123.144 151.461 123.917 151.212 124.807C151.149 125.032 151.084 125.265 151.017 125.504C150.345 127.89 149.431 130.989 148.059 134.076C145.304 140.274 140.789 146.248 132.877 146.46ZM44.5798 114.627C44.5754 114.63 44.5728 114.631 44.5727 114.631C44.5725 114.631 44.5747 114.629 44.5798 114.627Z" fill="#261C13" stroke="black"/>
<path d="M231.43 186.89C249.7 170.37 273.96 142.31 281.26 118.78C283.8 124.78 295.38 130.37 294.63 148.96C294.2 159.7 277.28 198.52 272.32 206.22C270.73 208.69 266.84 190.92 259.68 187.63C252.43 184.3 241.63 188.94 235.14 193.58" fill="#2CADC5"/>
<path d="M232.49 187.95C240.7 180.51 248.38 172.47 255.51 163.99C263.01 155.07 270 145.6 275.62 135.37C278.46 130.21 280.94 124.81 282.71 119.18L279.97 119.54C281.38 122.77 284.3 125.3 286.47 128.01C289.66 131.99 291.86 136.55 292.73 141.59C293.54 146.31 293.21 150.39 292.05 154.83C290.89 159.27 289.24 164.01 287.57 168.51C283.91 178.38 279.8 188.11 275.22 197.58C274.41 199.26 273.57 200.94 272.69 202.58C272.35 203.21 272 203.85 271.64 204.47C271.5 204.71 271.35 204.94 271.22 205.17C271.1 205.38 270.98 205.39 271.11 205.36C271.56 205.26 271.66 204.83 272.31 204.99C272.53 205.04 272.58 205.16 272.67 205.19C272.54 205.15 272.47 204.92 272.64 205.18C272.48 204.93 272.32 204.69 272.18 204.43C271.77 203.69 271.43 202.92 271.09 202.15C270.16 200.06 269.27 197.96 268.25 195.91C266.12 191.61 263.39 187.01 258.51 185.59C251.89 183.66 244.45 186.42 238.68 189.6C237.2 190.41 235.77 191.31 234.4 192.28C232.84 193.39 234.33 195.99 235.91 194.87C241.41 190.98 248.64 187.38 255.58 188.07C258.2 188.33 260.23 189.38 261.92 191.35C263.5 193.19 264.66 195.39 265.73 197.55C266.8 199.71 267.67 201.82 268.64 203.95C269.19 205.16 269.79 206.9 270.98 207.64C272.57 208.62 273.57 207.13 274.27 205.92C275.08 204.53 275.83 203.09 276.55 201.65C281.27 192.28 285.38 182.56 289.16 172.77C291.02 167.95 292.79 163.08 294.25 158.12C295.42 154.16 296.28 150.26 296.16 146.1C295.98 140.14 294.37 134.33 291.11 129.32C288.92 125.95 285.87 123.13 283.65 119.92C283.23 119.32 282.86 118.68 282.56 118.01C282.01 116.75 280.17 117.25 279.82 118.37C276.63 128.55 271.09 137.93 265.04 146.66C258.46 156.16 251 165.05 243.04 173.42C238.97 177.7 234.75 181.85 230.37 185.81C228.94 187.11 231.06 189.23 232.49 187.93V187.95Z" fill="black"/>
<path d="M213.15 179.31C216.32 178.18 229.8 172.5 233.06 173.34C238.12 174.64 240.23 180.65 240.74 185.85C241.04 188.9 241.04 192.14 239.59 194.84C238.13 197.54 234.8 199.44 231.93 198.37" fill="white"/>
<path d="M213.551 180.76C218.821 178.86 223.961 176.54 229.421 175.21C230.451 174.96 231.501 174.68 232.561 174.77C232.631 174.77 232.861 174.82 232.561 174.77C232.701 174.8 232.861 174.84 232.991 174.88C233.371 175.01 233.731 175.14 234.081 175.34C234.831 175.76 235.471 176.31 236.041 176.96C238.441 179.72 239.181 183.79 239.381 187.33C239.521 189.82 239.411 192.58 237.951 194.71C236.711 196.5 234.491 197.65 232.351 196.94C230.511 196.33 229.731 199.23 231.551 199.83C236.551 201.49 241.031 197.15 242.041 192.54C243.051 187.93 242.301 182.77 240.491 178.59C239.071 175.3 236.051 171.7 232.121 171.78C228.941 171.84 225.661 173.13 222.691 174.16C219.351 175.32 216.091 176.69 212.771 177.88C210.971 178.53 211.741 181.43 213.571 180.77L213.551 180.76Z" fill="black"/>
<path d="M138.261 220.71C143.501 226.73 155.431 243.06 158.391 250.39C158.751 251.28 159.101 252.28 158.751 253.18C158.391 254.1 157.411 254.63 156.501 255.08C142.921 261.78 128.861 267.59 114.461 272.46C132.901 275.12 150.211 282.44 167.861 288.25C173.341 290.05 179.391 291.71 184.801 289.7C187.731 288.61 190.141 286.55 192.481 284.54C195.911 281.58 199.341 278.62 202.781 275.66C203.221 275.28 203.681 274.87 203.831 274.32C204.121 273.26 203.171 272.29 202.301 271.58C193.131 264.14 183.271 257.5 172.871 251.77C169.911 250.14 166.811 248.51 164.701 245.92C163.231 244.11 162.321 241.94 161.441 239.81C158.551 232.83 155.671 225.86 152.781 218.88" fill="#2CADC5"/>
<path d="M137.201 221.77C143.061 228.53 148.331 236 153.041 243.6C154.121 245.35 155.171 247.12 156.091 248.95C156.461 249.67 156.821 250.41 157.101 251.17C157.311 251.76 157.581 252.38 157.151 252.91C156.741 253.42 155.901 253.7 155.321 253.98C149.061 257.06 142.711 259.95 136.271 262.63C128.971 265.67 121.561 268.45 114.071 270.99C112.821 271.41 112.481 273.65 114.071 273.88C125.891 275.61 137.301 279.22 148.561 283.13C154.281 285.11 159.971 287.16 165.711 289.09C171.001 290.86 176.591 292.73 182.241 291.88C187.891 291.03 192.241 286.71 196.491 283.05C198.821 281.04 201.151 279.04 203.481 277.03C204.341 276.29 205.151 275.54 205.341 274.37C205.541 273.07 204.851 271.92 203.951 271.03C201.911 269.01 199.371 267.33 197.081 265.61C194.791 263.89 192.251 262.07 189.771 260.38C184.941 257.08 179.961 254 174.851 251.14C172.221 249.67 169.391 248.34 167.151 246.3C164.911 244.26 163.701 241.33 162.521 238.49C159.761 231.82 157.001 225.15 154.241 218.47C153.511 216.71 150.611 217.48 151.351 219.27C153.671 224.88 155.991 230.49 158.321 236.1C160.401 241.13 162.061 246.28 166.571 249.67C168.621 251.21 170.911 252.37 173.141 253.61C175.631 255 178.091 256.44 180.511 257.94C185.351 260.92 190.071 264.11 194.641 267.5C196.921 269.19 199.231 270.9 201.391 272.75C201.621 272.95 202.421 273.51 202.391 273.9C202.361 274.22 201.581 274.7 201.361 274.89C200.141 275.95 198.911 277 197.681 278.06C195.441 279.99 193.201 281.93 190.951 283.86C188.971 285.56 186.881 287.29 184.411 288.22C179.161 290.21 173.361 288.43 168.271 286.77C162.821 284.98 157.411 283.04 152.001 281.15C139.881 276.91 127.621 272.85 114.871 270.99V273.88C129.071 269.07 142.961 263.37 156.421 256.77C157.621 256.18 158.941 255.61 159.731 254.48C160.701 253.07 160.441 251.47 159.851 249.97C159.121 248.12 158.161 246.36 157.171 244.64C154.601 240.19 151.691 235.93 148.701 231.76C145.711 227.59 142.671 223.49 139.331 219.63C138.061 218.17 135.951 220.3 137.211 221.75L137.201 221.77Z" fill="black"/>
<path d="M184.781 117.12C184.781 117.12 195.141 137.82 207.221 129.23C218.721 121.06 231.661 84.49 243.091 51.33C243.091 51.33 255.891 17.32 238.441 33.9C220.981 50.48 166.151 96.37 184.781 117.11V117.12Z" fill="#261C13" stroke="black" stroke-miterlimit="10"/>
<path d="M163.921 48.4999C164.731 57.6599 174.361 64.5199 183.521 63.7799C192.681 63.0399 200.561 55.9399 203.891 47.3699C208.121 36.5199 205.491 23.3199 197.431 14.9099C189.371 6.49992 176.301 3.30992 165.281 7.06992C153.561 11.0699 145.331 21.7199 139.881 32.8499C127.751 57.5899 127.681 80.4499 132.371 107.6C137.061 134.75 115.201 175.97 126.511 201.1C129.051 206.73 134.711 218.7 137.651 220.6C139.841 222.01 141.721 224.24 147.081 222.96C150.371 222.17 158.241 219.02 162.371 220.6C180.481 227.57 221.011 217.48 227.721 199.27C234.431 181.06 228.951 160.36 219.241 143.56C212.651 132.14 204.191 121.87 197.681 110.4C191.171 98.9299 190.171 75.6099 192.371 62.5999" fill="white"/>
<path d="M162.42 48.4999C163.43 58.5199 173.33 65.88 183.18 65.2999C193.71 64.68 202.41 56.3599 205.73 46.7099C209.2 36.6399 207.15 24.8499 200.69 16.4199C194.23 7.98995 183.58 3.44995 173.08 4.05995C162.58 4.66995 152.9 11.1599 146.3 19.5999C139.13 28.7899 134.31 40.0399 131.34 51.2499C128.37 62.4599 127.52 74.4299 128.23 86.1399C128.6 92.2499 129.36 98.3399 130.31 104.38C131.06 109.13 131.65 113.71 131.48 118.54C131.13 128.43 128.97 138.19 126.93 147.85C124.83 157.82 122.6 167.84 121.9 178.02C121.58 182.63 121.64 187.26 122.31 191.84C122.93 196.03 124.28 199.89 126.05 203.72C127.94 207.83 129.91 211.92 132.19 215.84C133.15 217.49 134.17 219.14 135.42 220.59C136.39 221.7 137.72 222.56 138.97 223.34C142.96 225.84 147.18 224.52 151.35 223.28C153.61 222.61 155.93 221.93 158.28 221.72C159.24 221.64 160.24 221.6 161.19 221.82C162.02 222.01 162.82 222.38 163.64 222.63C171.07 224.91 179.25 224.62 186.85 223.58C195.45 222.41 203.98 219.99 211.77 216.13C218.19 212.95 224.87 208.41 228.2 201.84C230.53 197.23 231.53 191.79 231.96 186.69C232.47 180.79 231.96 174.83 230.78 169.03C228.32 157.01 222.83 145.97 216.17 135.75C212.57 130.22 208.7 124.88 205.04 119.39C202.06 114.92 198.83 110.33 196.95 105.25C193.53 95.9799 192.71 85.6599 192.8 75.8499C192.84 71.5499 193.09 67.2299 193.8 62.9899C194.11 61.0999 191.22 60.2899 190.91 62.1899C189.39 71.3099 189.47 80.81 190.55 89.9699C191.09 94.59 191.89 99.2 193.26 103.65C194.71 108.36 197.07 112.5 199.7 116.65C206.27 127.05 214.03 136.72 219.78 147.63C225.17 157.84 228.92 169.24 229.16 180.86C229.34 189.44 227.98 199.25 221.72 205.62C216.42 211.01 209.22 214.45 202.15 216.88C194.37 219.55 186.13 221.14 177.9 221.29C174.36 221.36 170.78 221.17 167.3 220.44C165.74 220.12 164.25 219.65 162.76 219.13C160.76 218.44 158.61 218.6 156.56 218.91C154.26 219.26 152.02 219.92 149.8 220.59C147.78 221.2 145.71 221.96 143.57 221.81C140.62 221.6 138.06 219.32 136.54 217.1C134.11 213.56 132.2 209.64 130.34 205.78C128.62 202.21 126.89 198.65 125.94 194.78C123.84 186.18 124.68 177.02 126.01 168.38C127.54 158.5 129.92 148.77 131.81 138.96C133.53 130.06 135.07 120.87 134.37 111.77C133.95 106.34 132.73 100.98 132.09 95.5799C131.45 90.1799 131 84.2699 130.98 78.5899C130.93 67.2099 132.61 55.9199 136.34 45.1499C140.07 34.3799 144.95 24.5499 152.74 16.8299C160.06 9.57995 169.93 5.57995 180.25 7.47995C190.57 9.37995 199.07 16.2499 202.57 26.0999C206.07 35.9499 204.63 46.6599 197.94 54.3899C194.72 58.1099 190.47 60.9499 185.61 61.9699C180.75 62.9899 176.22 61.8499 172.32 59.2599C168.67 56.8299 165.86 52.9399 165.41 48.5099C165.22 46.6099 162.22 46.5899 162.41 48.5099L162.42 48.4999Z" fill="black"/>
<g style="mix-blend-mode:multiply">
<path d="M162.67 46.97C163.42 54.34 172.36 59.87 180.87 59.27C189.38 58.67 196.69 52.96 199.78 46.06C203.7 37.32 201.27 26.7 193.79 19.93C186.31 13.16 174.2 12.7 163.96 15.72C153.08 18.94 147.98 27.87 142.92 36.82C131.66 56.74 133.97 71.41 138.32 93.27C142.36 57.06 187.05 68.78 189.09 58.31" fill="#E0D4CA"/>
</g>
<path d="M137.69 206.75C143.56 213.51 151.08 219.58 159.92 221.78C161.79 222.25 162.59 219.35 160.72 218.89C152.36 216.81 145.36 211.02 139.81 204.63C138.54 203.17 136.43 205.3 137.69 206.75Z" fill="black"/>
<path d="M133.98 191.59C133.98 191.59 163.74 227.85 198.3 217.59C232.85 207.33 230.12 189.19 227.38 170.38C226.3 162.99 223.27 154.98 215.41 141.64C207.54 128.3 197.28 118.38 197.28 118.38C197.28 118.38 253.05 201.86 183.25 210.41C152.57 214.17 133.98 191.59 133.98 191.59Z" fill="#E0D4CA"/>
<path d="M171.54 48.7807C175.739 47.1459 177.726 42.1783 175.977 37.6852C174.228 33.1922 169.405 30.8752 165.206 32.5101C161.006 34.1449 159.019 39.1125 160.768 43.6055C162.518 48.0986 167.34 50.4156 171.54 48.7807Z" fill="white" stroke="black" stroke-width="2" stroke-miterlimit="10"/>
<path d="M172.411 36.6199L170.721 43.3699L170.871 36.5499C168.471 36.8199 166.611 38.8499 166.611 41.3199C166.611 43.9699 168.761 46.1199 171.411 46.1199C174.061 46.1199 176.211 43.9699 176.211 41.3199C176.211 39.0099 174.581 37.0899 172.411 36.6299V36.6199ZM174.561 41.3099C173.931 41.6699 173.181 41.5299 172.871 40.9899C172.561 40.4499 172.821 39.7299 173.441 39.3699C174.071 39.0099 174.821 39.1499 175.131 39.6899C175.441 40.2299 175.181 40.9499 174.561 41.3099Z" fill="black"/>
<path d="M197.454 61.5543C201.088 60.1398 202.89 56.056 201.48 52.4327C200.069 48.8095 195.98 47.0189 192.347 48.4334C188.713 49.8479 186.911 53.9317 188.321 57.5549C189.732 61.1782 193.821 62.9687 197.454 61.5543Z" fill="white" stroke="black" stroke-width="2" stroke-miterlimit="10"/>
<path d="M198.01 50.18L196.43 56.17L196.57 50.11C194.33 50.35 192.59 52.15 192.59 54.34C192.59 56.69 194.6 58.6 197.07 58.6C199.54 58.6 201.55 56.69 201.55 54.34C201.55 52.29 200.03 50.58 198 50.17L198.01 50.18ZM200.01 54.34C199.43 54.66 198.72 54.53 198.43 54.06C198.14 53.58 198.38 52.94 198.96 52.62C199.54 52.3 200.25 52.43 200.54 52.9C200.83 53.37 200.59 54.02 200.01 54.34Z" fill="black"/>
<path d="M172.531 55.5599C170.201 73.5499 164.111 99.3499 158.811 116.7C169.711 101.05 176.451 75.5299 183.511 56.1899" fill="#2CADC5"/>
<path d="M171.03 55.56C168.9 71.86 165.16 88.01 160.91 103.87C159.8 108.03 158.62 112.18 157.36 116.3C156.84 118.01 159.17 118.8 160.1 117.46C164.79 110.68 168.22 103.11 171.28 95.48C174.6 87.17 177.42 78.67 180.26 70.19C181.78 65.65 183.32 61.1 184.96 56.6C185.62 54.78 182.72 54 182.07 55.8C176.16 72.02 171.66 88.86 164.11 104.44C162.18 108.42 160.03 112.31 157.51 115.95L160.25 117.11C165.11 101.19 169.02 84.91 171.99 68.54C172.77 64.24 173.46 59.92 174.03 55.58C174.14 54.77 173.26 54.09 172.53 54.08C171.63 54.08 171.13 54.78 171.03 55.58V55.56Z" fill="black"/>
<path d="M167.55 31.8001C169.85 33.8301 172.15 35.8701 174.45 37.9001C174.95 38.3401 175.67 38.4901 176.27 38.1301C176.8 37.8201 177.2 37.0401 176.96 36.4401C174.97 31.4901 172.01 26.8301 170.35 21.8501C169.74 20.0301 166.84 20.8101 167.46 22.6501C168.32 25.2301 169.56 27.7001 170.74 30.1401C171.37 31.4601 172.02 32.7701 172.65 34.0901C172.93 34.6801 173.21 35.2701 173.48 35.8701C173.6 36.1301 173.71 36.3801 173.82 36.6401C173.97 36.9901 173.91 36.8301 174.07 37.2501L176.58 35.7901C174.28 33.7601 171.98 31.7201 169.68 29.6901C169.07 29.1501 168.16 29.0901 167.56 29.6901C167.01 30.2401 166.95 31.2701 167.56 31.8101L167.55 31.8001Z" fill="black"/>
<path d="M208 38.31C202.69 41.55 196.81 43.79 191.5 47.03C190.29 47.77 190.72 49.92 192.26 49.83C196.1 49.6 199.94 49.37 203.78 49.14C205.7 49.02 205.71 46.02 203.78 46.14C199.94 46.37 196.1 46.6 192.26 46.83L193.02 49.63C198.33 46.39 204.21 44.15 209.52 40.91C211.17 39.91 209.66 37.31 208.01 38.32L208 38.31Z" fill="black"/>
<path d="M71.3803 125.81L66.4703 115.87C66.4703 115.87 60.1403 105.01 66.4703 97.17C73.7103 88.2 73.5003 68.96 66.4703 58.49C58.6303 46.8 44.3003 34.59 19.1903 44.77C9.77033 48.59 4.38033 57.84 2.37033 65.05C-2.26967 81.74 5.16033 95.59 20.3203 104.41C24.9603 107.11 29.2403 109.4 35.7003 108.93C37.7903 108.78 44.1503 108.03 48.3703 110.44C52.2603 112.66 54.4403 114.89 57.1203 120.7C59.3103 125.44 60.9703 128.65 62.0403 130.61C62.8003 131.99 64.5103 132.53 65.9203 131.81L70.0903 129.69C71.5103 128.97 72.0903 127.23 71.3803 125.8V125.81Z" fill="#D8D0CA" stroke="black" stroke-width="2" stroke-miterlimit="10"/>
<path d="M6.15039 86.3099C6.15039 86.3099 10.6604 95.4199 16.4104 100.18C26.1404 108.24 33.7004 108.46 44.3104 106.66C43.8604 107.39 35.1404 107.47 26.8204 103.95C18.5004 100.43 10.6804 93.2399 6.16039 86.3099H6.15039Z" fill="#96887E"/>
<path d="M69.0812 127.71L66.1412 129.52C66.1412 129.52 64.4412 131.1 63.2012 129.07C61.9612 127.04 55.6212 113.8 55.6212 113.8C55.6212 113.8 51.2112 108.48 47.7012 108.03C47.7012 108.03 54.4912 108.37 60.1412 119.57C65.7912 130.77 69.0812 127.71 69.0812 127.71Z" fill="#96887E"/>
<path d="M65.8299 95.11C72.5199 86.54 72.3199 68.13 65.8299 58.12C58.5899 46.94 44.0699 34.85 20.8899 44.58C12.1999 48.23 7.01991 54.08 5.16991 60.98C0.879913 76.94 7.42991 91.07 22.1399 100.19C26.3699 102.82 32.9199 106.56 38.8899 106.12C40.8199 105.98 61.1099 98.57 65.8399 95.11H65.8299Z" fill="#C1272D" stroke="black" stroke-miterlimit="10"/>
<path d="M34.2402 43.11C34.2402 43.11 25.1902 43.22 18.6302 48.09C12.0702 52.96 8.34016 58.38 6.41016 62.91C6.41016 62.91 17.0402 45.6 34.2302 43.12L34.2402 43.11Z" fill="white"/>
<path d="M55.2794 50.6799C55.2794 50.6799 73.2594 57.8099 66.6994 89.2499C66.6994 89.2499 65.3394 95.1299 60.5894 97.6199C55.8394 100.11 47.3594 103.05 47.3594 103.05C47.3594 103.05 72.3594 81.3299 55.2794 50.6799Z" fill="#8E252D"/>
<path d="M252.47 18.42C257.154 18.42 260.95 14.5204 260.95 9.71C260.95 4.8996 257.154 1 252.47 1C247.787 1 243.99 4.8996 243.99 9.71C243.99 14.5204 247.787 18.42 252.47 18.42Z" fill="#E0D3D4" stroke="black" stroke-width="2" stroke-miterlimit="10"/>
<path d="M249.139 6.66003C249.139 6.66003 244.409 11.37 249.009 15.67C252.869 19.27 257.379 14.9 257.379 14.9C257.379 14.9 250.559 15.93 248.629 12.97C246.699 10.01 249.139 6.66003 249.139 6.66003Z" fill="#2CADC5"/>
<path d="M113.959 107.48C124.169 105.23 129.369 94.19 129.959 91.76C130.549 89.33 134.219 90.47 133.959 93.02C133.589 96.69 133.349 104.39 133.089 113.46C132.459 136.25 127.489 146.68 127.489 146.68L112.189 144.64L113.949 107.48H113.959Z" fill="#261C13"/>
</svg>
