<svg width="95" height="122" viewBox="0 0 95 122" fill="none" xmlns="http://www.w3.org/2000/svg">
<path d="M73.2693 48C76.4955 48 79.1109 45.3137 79.1109 42C79.1109 38.6863 76.4955 36 73.2693 36C70.0431 36 67.4277 38.6863 67.4277 42C67.4277 45.3137 70.0431 48 73.2693 48Z" fill="#E0D3D4" stroke="black" stroke-miterlimit="10"/>
<path d="M70.9711 39.899C70.9711 39.899 67.7128 43.1436 70.8816 46.1057C73.5406 48.5856 76.6474 45.5753 76.6474 45.5753C76.6474 45.5753 71.9493 46.2848 70.6198 44.2458C69.2903 42.2067 70.9711 39.899 70.9711 39.899Z" fill="#2CADC5"/>
<path d="M66.7695 77.1243C74.4742 70.1576 84.705 58.3243 87.7835 48.4014C88.8547 50.9317 93.7381 53.289 93.4219 61.1287C93.2405 65.6579 86.1051 82.0289 84.0134 85.2761C83.3429 86.3177 81.7024 78.8238 78.683 77.4364C75.6255 76.0321 71.071 77.9888 68.3341 79.9456" fill="#2CADC5"/>
<path d="M67.2174 77.5713C70.6797 74.4337 73.9184 71.0431 76.9253 67.467C80.0881 63.7053 83.0359 59.7117 85.4059 55.3975C86.6036 53.2215 87.6495 50.9442 88.3959 48.57L87.2404 48.7218C87.835 50.0839 89.0664 51.1509 89.9815 52.2937C91.3268 53.9721 92.2546 55.8952 92.6215 58.0206C92.9631 60.0111 92.8239 61.7317 92.3347 63.6041C91.8455 65.4765 91.1497 67.4754 90.4454 69.3731C88.902 73.5355 87.1687 77.6388 85.2373 81.6324C84.8957 82.3409 84.5414 83.0493 84.1703 83.741C84.0269 84.0066 83.8793 84.2765 83.7275 84.538C83.6685 84.6392 83.6052 84.7362 83.5504 84.8332C83.4998 84.9218 83.4492 84.926 83.504 84.9133C83.6938 84.8711 83.736 84.6898 84.0101 84.7573C84.1028 84.7784 84.1239 84.829 84.1619 84.8416C84.1071 84.8248 84.0775 84.7278 84.1492 84.8374C84.0818 84.732 84.0143 84.6308 83.9552 84.5211C83.7823 84.2091 83.639 83.8843 83.4956 83.5596C83.1034 82.6782 82.7281 81.7926 82.2979 80.9281C81.3997 79.1147 80.2484 77.1749 78.1904 76.576C75.3987 75.7621 72.2611 76.926 69.8278 78.2671C69.2037 78.6087 68.6006 78.9882 68.0229 79.3973C67.365 79.8654 67.9934 80.9619 68.6597 80.4895C70.9791 78.8491 74.0281 77.3309 76.9548 77.6219C78.0597 77.7315 78.9158 78.1743 79.6285 79.0051C80.2948 79.7811 80.784 80.7088 81.2352 81.6197C81.6864 82.5306 82.0533 83.4204 82.4624 84.3187C82.6943 84.829 82.9473 85.5628 83.4492 85.8748C84.1197 86.2881 84.5414 85.6598 84.8366 85.1495C85.1782 84.5633 85.4945 83.956 85.7981 83.3488C87.7886 79.3973 89.5219 75.2982 91.116 71.1696C91.9003 69.137 92.6468 67.0832 93.2625 64.9915C93.7559 63.3216 94.1186 61.6769 94.068 59.9225C93.992 57.4091 93.3131 54.959 91.9383 52.8462C91.0147 51.425 89.7285 50.2358 88.7923 48.8821C88.6152 48.629 88.4592 48.3591 88.3326 48.0766C88.1007 47.5452 87.3247 47.7561 87.1771 48.2284C85.8319 52.5215 83.4956 56.4771 80.9442 60.1587C78.1693 64.165 75.0233 67.914 71.6665 71.4438C69.9501 73.2487 68.1705 74.9988 66.3234 76.6688C65.7203 77.217 66.6144 78.1111 67.2174 77.5628V77.5713Z" fill="black"/>
<path d="M59.0605 73.9319C60.3974 73.4554 66.0821 71.06 67.4569 71.4143C69.5907 71.9625 70.4806 74.497 70.6956 76.6899C70.8222 77.9761 70.8221 79.3425 70.2107 80.4811C69.595 81.6197 68.1907 82.421 66.9803 81.9698" fill="white"/>
<path d="M59.2291 74.5434C61.4516 73.7421 63.6192 72.7638 65.9218 72.2029C66.3561 72.0975 66.7989 71.9794 67.2459 72.0173C67.3724 72.0384 67.2755 72.0173 67.2459 72.0173C67.305 72.03 67.3725 72.0469 67.4273 72.0637C67.5875 72.1186 67.7393 72.1734 67.8869 72.2577C68.2032 72.4348 68.4731 72.6668 68.7135 72.9409C69.7256 74.1048 70.0377 75.8212 70.122 77.3141C70.1811 78.3641 70.1347 79.5281 69.519 80.4263C68.996 81.1812 68.0598 81.6662 67.1574 81.3667C66.3814 81.1095 66.0525 82.3325 66.82 82.5855C68.9286 83.2855 70.8179 81.4553 71.2438 79.5112C71.6697 77.5671 71.3534 75.391 70.5901 73.6283C69.9913 72.2408 68.7177 70.7227 67.0604 70.7564C65.7193 70.7817 64.3361 71.3257 63.0836 71.7601C61.6751 72.2493 60.3003 72.827 58.9002 73.3289C58.1411 73.603 58.4658 74.826 59.2376 74.5476L59.2291 74.5434Z" fill="black"/>
<path d="M26.4586 63.1192C19.1208 42.7673 10.4419 23.3642 0.632812 5.36548C15.0259 19.3664 27.9262 37.6477 38.2624 58.6997" fill="white"/>
<path d="M27.0664 62.9505C24.2198 55.0644 21.154 47.2627 17.8646 39.5538C14.6343 31.984 11.1804 24.5112 7.49887 17.1523C5.46621 13.0786 3.35764 9.04275 1.1816 5.0449L0.186351 5.81242C5.9807 11.455 11.3238 17.5614 16.2284 23.9883C21.4745 30.8665 26.2441 38.1073 30.5666 45.6011C33.1011 49.9912 35.4796 54.4698 37.7147 59.0201C38.0731 59.7497 39.1654 59.1086 38.8069 58.3833C34.8597 50.3496 30.457 42.5353 25.5609 35.0372C20.9431 27.9651 15.891 21.1712 10.3623 14.7823C7.4061 11.3664 4.31072 8.06859 1.07617 4.91838C0.55746 4.41233 -0.260666 5.05333 0.0809228 5.6859C3.93539 12.7623 7.56635 19.9567 10.9822 27.2566C14.4909 34.7589 17.7718 42.3666 20.8335 50.0629C22.5752 54.4445 24.2451 58.8556 25.8434 63.2878C26.1176 64.0469 27.3405 63.718 27.0622 62.9505H27.0664Z" fill="black"/>
<path d="M16.2408 36.1927L4.01953 10.2826L23.2202 40.0219L20.3103 46.7904L16.2408 36.1927Z" fill="#E0D4CA"/>
<path d="M27.4782 91.391C29.688 93.9297 34.719 100.816 35.9673 103.907C36.1191 104.283 36.2667 104.705 36.1191 105.084C35.9673 105.472 35.554 105.696 35.1703 105.885C29.4434 108.711 23.5141 111.161 17.4414 113.215C25.2178 114.336 32.5177 117.423 39.9609 119.874C42.2719 120.633 44.8233 121.333 47.1048 120.485C48.3404 120.025 49.3567 119.157 50.3435 118.309C51.79 117.061 53.2365 115.812 54.6872 114.564C54.8727 114.404 55.0667 114.231 55.13 113.999C55.2523 113.552 54.8517 113.143 54.4848 112.844C50.6177 109.706 46.4596 106.906 42.0737 104.489C40.8255 103.802 39.5181 103.115 38.6283 102.022C38.0084 101.259 37.6246 100.344 37.2535 99.4457C36.0348 96.5022 34.8202 93.5628 33.6015 90.6193" fill="#2CADC5"/>
<path d="M27.0311 91.8379C29.5024 94.6887 31.7248 97.8389 33.7111 101.044C34.1665 101.782 34.6093 102.528 34.9973 103.3C35.1534 103.604 35.3052 103.916 35.4233 104.236C35.5118 104.485 35.6257 104.747 35.4443 104.97C35.2714 105.185 34.9172 105.303 34.6726 105.421C32.0327 106.72 29.3548 107.939 26.6389 109.069C23.5604 110.351 20.4355 111.523 17.2769 112.595C16.7498 112.772 16.6064 113.716 17.2769 113.813C22.2616 114.543 27.0733 116.065 31.8218 117.714C34.234 118.549 36.6336 119.414 39.0542 120.228C41.2851 120.974 43.6425 121.763 46.0251 121.404C48.4078 121.046 50.2423 119.224 52.0346 117.681C53.0172 116.833 53.9998 115.989 54.9824 115.142C55.345 114.83 55.6866 114.513 55.7667 114.02C55.8511 113.472 55.5601 112.987 55.1806 112.612C54.3203 111.76 53.2491 111.051 52.2834 110.326C51.3177 109.6 50.2465 108.833 49.2007 108.12C47.1638 106.729 45.0636 105.43 42.9087 104.224C41.7996 103.604 40.6061 103.043 39.6615 102.183C38.7168 101.322 38.2066 100.087 37.7089 98.8889C36.545 96.0761 35.3811 93.2633 34.2172 90.4462C33.9093 89.704 32.6863 90.0287 32.9984 90.7836C33.9768 93.1494 34.9551 95.5152 35.9377 97.881C36.8149 100.002 37.515 102.174 39.4169 103.604C40.2814 104.253 41.2471 104.742 42.1875 105.265C43.2376 105.851 44.275 106.459 45.2956 107.091C47.3367 108.348 49.3272 109.693 51.2544 111.123C52.2159 111.836 53.1901 112.557 54.101 113.337C54.198 113.421 54.5353 113.657 54.5227 113.822C54.51 113.957 54.1811 114.159 54.0883 114.239C53.5738 114.686 53.0551 115.129 52.5364 115.576C51.5918 116.39 50.6471 117.208 49.6983 118.022C48.8633 118.739 47.9819 119.469 46.9403 119.861C44.7263 120.7 42.2803 119.949 40.1338 119.249C37.8355 118.494 35.554 117.676 33.2725 116.879C28.1613 115.091 22.9911 113.379 17.6143 112.595V113.813C23.6026 111.785 29.4602 109.381 35.1365 106.598C35.6425 106.349 36.1992 106.109 36.5324 105.632C36.9414 105.038 36.8318 104.363 36.583 103.73C36.2751 102.95 35.8703 102.208 35.4528 101.482C34.369 99.6059 33.1418 97.8093 31.8809 96.0508C30.6199 94.2923 29.3379 92.5632 27.9294 90.9354C27.3938 90.3197 26.504 91.218 27.0354 91.8294L27.0311 91.8379Z" fill="black"/>
<path d="M50.3766 28.9714C50.4142 28.856 50.448 28.7606 50.4761 28.6856C52.1945 28.2877 53.8589 29.313 55.5002 31.5718C57.1976 33.9078 58.7277 37.3865 60.079 41.2811C62.1994 47.3926 63.8414 54.4082 65.0087 59.3955C65.3281 60.7602 65.612 61.973 65.8604 62.9739C66.1443 64.1178 66.2611 64.9149 66.2644 65.4433C66.266 65.7074 66.2389 65.8795 66.2051 65.9845C66.1892 66.0339 66.1745 66.061 66.1656 66.0743C66.1356 66.0757 66.0359 66.0696 65.8164 65.9516C65.5219 65.7934 65.1544 65.506 64.7421 65.1215C63.9241 64.3582 63.0251 63.3031 62.3231 62.4269C61.9739 61.9912 61.677 61.604 61.4674 61.326C61.3627 61.1871 61.2799 61.0755 61.2235 60.999C61.1952 60.9607 61.1736 60.9312 61.1592 60.9114L61.1429 60.8891L61.139 60.8836L61.138 60.8823L61.1378 60.882L61.138 60.8819L61.1302 60.8717C53.118 50.3706 50.5037 42.2271 49.8732 36.7449C49.5577 34.0024 49.7378 31.9187 49.9918 30.5304C50.1189 29.8359 50.2646 29.3147 50.3766 28.9714Z" fill="#261C13" stroke="black"/>
<path d="M38.3005 18.7633C38.6421 22.6262 42.7032 25.5191 46.5661 25.2071C50.429 24.895 53.7521 21.9008 55.1564 18.2867C56.9402 13.7111 55.8311 8.14452 52.4321 4.5979C49.0373 1.05129 43.5213 -0.293981 38.874 1.29166C33.9315 2.97852 30.4608 7.46978 28.1625 12.1635C23.0471 22.5967 23.0176 32.237 24.9954 43.6866C26.9732 55.1361 17.7546 72.5192 22.5242 83.1169C23.5953 85.4911 25.9822 90.539 27.222 91.3403C28.1456 91.9349 28.9384 92.8753 31.1988 92.3355C32.5862 92.0024 35.9051 90.674 37.6468 91.3403C45.2841 94.2796 62.3761 90.0245 65.2058 82.3451C68.0355 74.6657 65.7245 65.9362 61.6297 58.8514C58.8506 54.0355 55.2829 49.7044 52.5375 44.8674C49.7922 40.0303 49.3705 30.196 50.2982 24.7094" fill="white"/>
<path d="M37.6689 18.7633C38.0948 22.9889 42.2698 26.0927 46.4237 25.8481C50.8643 25.5866 54.5333 22.0779 55.9333 18.0084C57.3334 13.9389 56.5322 8.78974 53.8079 5.23469C51.0836 1.67964 46.5882 -0.230728 42.1644 0.0223003C37.7406 0.275329 33.6542 3.01647 30.8709 6.57574C27.8472 10.4513 25.8145 15.1956 24.562 19.923C23.2927 24.7137 22.9511 29.6983 23.2505 34.6366C23.4065 37.2133 23.727 39.7815 24.1277 42.3287C24.444 44.3318 24.6928 46.2633 24.6211 48.3001C24.4735 52.4709 23.5626 56.5868 22.7023 60.6606C21.842 64.7343 20.8763 69.0906 20.5811 73.3837C20.4461 75.3278 20.4714 77.2803 20.754 79.2118C21.0154 80.9788 21.5847 82.6066 22.3312 84.2217C23.1282 85.955 23.959 87.6798 24.9205 89.3329C25.3253 90.0287 25.7555 90.7246 26.2826 91.3361C26.6917 91.8042 27.2526 92.1668 27.7797 92.4958C29.4624 93.5501 31.242 92.9934 33.0005 92.4705C33.9536 92.1879 34.932 91.9012 35.923 91.8126C36.3279 91.7789 36.7496 91.762 37.1502 91.8548C37.5002 91.9349 37.8376 92.0909 38.1834 92.1964C41.3167 93.1579 44.7664 93.0356 47.9714 92.597C51.5981 92.1036 55.1954 91.083 58.4805 89.4552C61.1879 88.1142 64.005 86.1996 65.4093 83.4289C66.3919 81.4848 66.8136 79.1907 66.9949 77.0399C67.21 74.5518 66.9949 72.0384 66.4973 69.5925C65.4599 64.5235 63.1447 59.8678 60.336 55.5578C58.8179 53.2258 57.1858 50.9738 55.6424 48.6586C54.3857 46.7735 53.0235 44.8379 52.2307 42.6956C50.7884 38.7863 50.4426 34.4342 50.4806 30.2972C50.4975 28.4838 50.6029 26.662 50.9023 24.8739C51.033 24.0769 49.8143 23.7353 49.6835 24.5365C49.0425 28.3826 49.0763 32.3889 49.5317 36.2518C49.7595 38.2001 50.0968 40.1442 50.6746 42.0208C51.2861 44.0071 52.2813 45.753 53.3904 47.5031C56.1611 51.8889 59.4336 55.9669 61.8584 60.5678C64.1315 64.8735 65.7129 69.681 65.8141 74.5814C65.89 78.1997 65.3165 82.3367 62.6766 85.023C60.4415 87.296 57.4051 88.7467 54.4236 89.7715C51.1427 90.8975 47.6678 91.568 44.197 91.6313C42.7042 91.6608 41.1944 91.5807 39.7269 91.2728C39.069 91.1379 38.4406 90.9396 37.8123 90.7204C36.9689 90.4294 36.0622 90.4968 35.1977 90.6276C34.2277 90.7752 33.2831 91.0535 32.3469 91.3361C31.495 91.5933 30.6221 91.9138 29.7196 91.8506C28.4755 91.762 27.396 90.8005 26.7549 89.8643C25.7302 88.3714 24.9247 86.7183 24.1403 85.0905C23.415 83.585 22.6854 82.0837 22.2848 80.4516C21.3992 76.8249 21.7534 72.962 22.3143 69.3184C22.9595 65.1518 23.9632 61.0486 24.7602 56.9115C25.4856 53.1583 26.135 49.2827 25.8398 45.4451C25.6627 43.1552 25.1482 40.8948 24.8783 38.6176C24.6084 36.3403 24.4187 33.848 24.4102 31.4527C24.3891 26.6535 25.0976 21.8924 26.6706 17.3505C28.2436 12.8087 30.3016 8.66322 33.5867 5.40759C36.6737 2.35016 40.836 0.663306 45.1881 1.46456C49.5402 2.26582 53.1247 5.163 54.6007 9.31688C56.0767 13.4708 55.4695 17.9873 52.6482 21.2472C51.2903 22.8159 49.498 24.0136 47.4485 24.4438C45.3989 24.8739 43.4886 24.3932 41.8439 23.3009C40.3046 22.2762 39.1196 20.6357 38.9298 18.7675C38.8497 17.9662 37.5846 17.9578 37.6647 18.7675L37.6689 18.7633Z" fill="black"/>
<g style="mix-blend-mode:multiply">
<path d="M37.7751 18.1223C38.0914 21.2303 41.8615 23.5624 45.4503 23.3094C49.0391 23.0563 52.1218 20.6483 53.4249 17.7385C55.078 14.0527 54.0532 9.57413 50.8988 6.71913C47.7444 3.86412 42.6374 3.67014 38.3191 4.94371C33.7308 6.30163 31.5801 10.0675 29.4462 13.8419C24.6977 22.2424 25.6719 28.429 27.5063 37.6476C29.2101 22.3774 48.0565 27.3199 48.9168 22.9045" fill="#E0D4CA"/>
</g>
<path d="M27.2395 85.4995C29.7149 88.3503 32.8862 90.9101 36.6142 91.8378C37.4028 92.036 37.7401 90.8131 36.9515 90.6191C33.426 89.7419 30.474 87.3002 28.1335 84.6054C27.5979 83.9897 26.7081 84.888 27.2395 85.4995Z" fill="black"/>
<path d="M23.7743 37.9244L23.7745 37.9251C24.7838 40.9261 25.2064 45.2235 25.2485 50.0153C25.2904 54.7955 24.9539 60.0224 24.4689 64.8579C23.9841 69.6924 23.3518 74.1272 22.8044 77.3203C22.5306 78.9179 22.2789 80.1991 22.0788 81.0618C22.0298 81.2728 21.9846 81.4557 21.9436 81.6101C20.1081 79.8464 18.3161 76.7183 17.1213 71.9877C15.8184 66.8291 15.2363 59.804 16.0633 50.6689C16.3649 47.3388 17.9617 44.0466 19.5503 41.4812C20.3412 40.2039 21.123 39.118 21.7271 38.3099C21.9267 38.043 22.1043 37.8098 22.2583 37.6076C22.3391 37.5016 22.4134 37.4041 22.4809 37.3147C22.5772 37.1873 22.6605 37.0755 22.7251 36.984C22.7821 36.9035 22.8487 36.8057 22.8888 36.7191L22.8895 36.7176C22.9314 36.6263 22.9662 36.5717 22.9905 36.54C23.0113 36.5556 23.0394 36.5796 23.0751 36.6162C23.3329 36.8814 23.6095 37.432 23.7743 37.9244ZM23.0292 36.4996C23.0292 36.4997 23.0283 36.5004 23.0265 36.5014C23.0283 36.5001 23.0292 36.4996 23.0292 36.4996Z" fill="#261C13" stroke="black"/>
<path d="M25.6758 79.1106C25.6758 79.1106 38.226 94.402 52.8004 90.0752C67.3707 85.7484 66.2194 78.0985 65.0639 70.1661C64.6084 67.0496 63.3306 63.6717 60.016 58.046C56.6971 52.4203 52.3703 48.2369 52.3703 48.2369C52.3703 48.2369 75.8893 83.4416 46.4536 87.0473C33.5154 88.6329 25.6758 79.1106 25.6758 79.1106Z" fill="#E0D4CA"/>
<path d="M41.5146 18.8893C43.2856 18.1999 44.1234 16.105 43.3858 14.2102C42.6482 12.3155 40.6146 11.3383 38.8435 12.0278C37.0724 12.7172 36.2347 14.8121 36.9723 16.7069C37.7099 18.6017 39.7435 19.5788 41.5146 18.8893Z" fill="white" stroke="black" stroke-miterlimit="10"/>
<path d="M40.3991 12.2591L39.6864 15.1057L39.7496 12.2296C38.7375 12.3435 37.9531 13.1996 37.9531 14.2412C37.9531 15.3587 38.8598 16.2654 39.9774 16.2654C41.0949 16.2654 42.0016 15.3587 42.0016 14.2412C42.0016 13.267 41.3142 12.4573 40.3991 12.2634V12.2591ZM41.3058 14.237C41.0401 14.3888 40.7238 14.3298 40.5931 14.102C40.4623 13.8743 40.572 13.5707 40.8334 13.4188C41.0991 13.267 41.4154 13.3261 41.5461 13.5538C41.6769 13.7815 41.5672 14.0852 41.3058 14.237Z" fill="black"/>
<path d="M52.4461 24.2762C53.9784 23.6797 54.7384 21.9575 54.1436 20.4295C53.5488 18.9015 51.8244 18.1464 50.2921 18.7429C48.7598 19.3394 47.9998 21.0617 48.5946 22.5896C49.1894 24.1176 50.9138 24.8727 52.4461 24.2762Z" fill="white" stroke="black" stroke-miterlimit="10"/>
<path d="M51.2076 19.0066L50.5413 21.5326L50.6003 18.9771C49.6557 19.0783 48.9219 19.8373 48.9219 20.7609C48.9219 21.7519 49.7695 22.5574 50.8112 22.5574C51.8528 22.5574 52.7004 21.7519 52.7004 20.7609C52.7004 19.8964 52.0594 19.1753 51.2033 19.0024L51.2076 19.0066ZM52.051 20.7651C51.8064 20.9001 51.507 20.8452 51.3847 20.647C51.2624 20.4446 51.3636 20.1747 51.6082 20.0398C51.8528 19.9048 52.1522 19.9596 52.2745 20.1579C52.3968 20.3561 52.2956 20.6302 52.051 20.7651Z" fill="black"/>
<path d="M41.9363 21.7406C40.9537 29.3272 38.3855 40.2075 36.1504 47.5242C40.7471 40.9244 43.5894 30.1622 46.5667 22.0063" fill="#2CADC5"/>
<path d="M41.3042 21.7406C40.4059 28.6145 38.8287 35.4252 37.0364 42.1136C36.5683 43.8679 36.0707 45.618 35.5393 47.3555C35.3201 48.0766 36.3026 48.4098 36.6948 47.8447C38.6727 44.9855 40.1192 41.7931 41.4096 38.5754C42.8097 35.071 43.9989 31.4864 45.1966 27.9103C45.8376 25.9957 46.487 24.0769 47.1787 22.1792C47.457 21.4117 46.234 21.0827 45.9599 21.8418C43.4676 28.682 41.5699 35.7837 38.3859 42.354C37.572 44.0324 36.6653 45.6729 35.6026 47.2079L36.7581 47.6971C38.8076 40.9834 40.4565 34.1179 41.709 27.2144C42.038 25.4011 42.3289 23.5793 42.5693 21.749C42.6157 21.4074 42.2446 21.1207 41.9367 21.1165C41.5572 21.1165 41.3463 21.4117 41.3042 21.749V21.7406Z" fill="black"/>
<path d="M40.3125 9.50243C40.3125 9.50243 43.7453 8.7813 45.3731 12.5767" stroke="black" stroke-miterlimit="10" stroke-linecap="round"/>
<path d="M49.8359 16.0769C49.8359 16.0769 52.9187 14.3985 55.567 17.5656" stroke="black" stroke-miterlimit="10" stroke-linecap="round"/>
</svg>
